<svg data-v-fde0c5aa="" xmlns="http://www.w3.org/2000/svg" viewBox="0 0 300 300" class="font"><!----><defs data-v-fde0c5aa=""><!----></defs><rect data-v-fde0c5aa="" fill="#FEF2E5" x="0" y="0" width="300px" height="300px" class="logo-background-square"></rect><defs data-v-fde0c5aa=""><linearGradient data-v-fde0c5aa="" gradientTransform="rotate(25)" id="9c76eba2-c862-470e-889d-73b52632d295" x1="0%" y1="0%" x2="100%" y2="0%"><stop data-v-fde0c5aa="" offset="0%" stop-color="#EB4C00" stop-opacity="1"></stop><stop data-v-fde0c5aa="" offset="100%" stop-color="#F2A900" stop-opacity="1"></stop></linearGradient></defs><g data-v-fde0c5aa="" id="848f2302-cd58-40b3-be60-a1b6407c1d47" fill="url(#9c76eba2-c862-470e-889d-73b52632d295)" transform="matrix(3.7049513333774464,0,0,3.7049513333774464,34.14617717592899,127.97406412873865)"><path d="M14.36 10.64L13.52 10.64L13.52 2.65L8.36 10.64L7.60 10.64L2.43 2.61L2.43 10.64L1.58 10.64L1.58 1.24L2.50 1.24L8.00 9.75L13.45 1.24L14.36 1.24L14.36 10.64ZM25.46 10.64L17.53 10.64L17.53 1.24L25.35 1.24L25.35 2.04L18.46 2.04L18.46 5.28L25.01 5.28L25.01 6.07L18.46 6.07L18.46 9.84L25.46 9.84L25.46 10.64ZM37.63 10.64L36.70 10.64L35.40 8.16L29.03 8.16L27.73 10.64L26.80 10.64L31.71 1.24L32.72 1.24L37.63 10.64ZM34.99 7.38L32.22 2.07L29.44 7.38L34.99 7.38ZM49.42 10.64L48.49 10.64L40.33 2.37L40.33 10.64L39.48 10.64L39.48 1.24L40.42 1.24L48.58 9.54L48.58 1.24L49.42 1.24L49.42 10.64ZM60.17 1.65L60.17 2.63L60.17 2.63Q59.90 2.50 59.55 2.35L59.55 2.35L59.55 2.35Q59.21 2.21 58.76 2.09L58.76 2.09L58.76 2.09Q58.31 1.98 57.75 1.90L57.75 1.90L57.75 1.90Q57.19 1.82 56.51 1.82L56.51 1.82L56.51 1.82Q55.68 1.82 55.03 1.91L55.03 1.91L55.03 1.91Q54.39 2.01 53.94 2.21L53.94 2.21L53.94 2.21Q53.49 2.41 53.26 2.72L53.26 2.72L53.26 2.72Q53.02 3.03 53.02 3.45L53.02 3.45L53.02 3.45Q53.02 3.81 53.24 4.07L53.24 4.07L53.24 4.07Q53.46 4.34 53.84 4.55L53.84 4.55L53.84 4.55Q54.22 4.75 54.73 4.92L54.73 4.92L54.73 4.92Q55.24 5.09 55.81 5.23L55.81 5.23L55.81 5.23Q56.38 5.38 56.99 5.53L56.99 5.53L56.99 5.53Q57.59 5.68 58.16 5.85L58.16 5.85L58.16 5.85Q58.73 6.03 59.24 6.24L59.24 6.24L59.24 6.24Q59.75 6.46 60.13 6.75L60.13 6.75L60.13 6.75Q60.51 7.03 60.73 7.40L60.73 7.40L60.73 7.40Q60.96 7.77 60.96 8.26L60.96 8.26L60.96 8.26Q60.96 8.78 60.76 9.18L60.76 9.18L60.76 9.18Q60.56 9.57 60.22 9.85L60.22 9.85L60.22 9.85Q59.88 10.14 59.43 10.33L59.43 10.33L59.43 10.33Q58.97 10.51 58.46 10.62L58.46 10.62L58.46 10.62Q57.94 10.73 57.39 10.78L57.39 10.78L57.39 10.78Q56.84 10.82 56.31 10.82L56.31 10.82L56.31 10.82Q55.08 10.82 54.09 10.64L54.09 10.64L54.09 10.64Q53.09 10.47 52.19 10.16L52.19 10.16L52.19 9.11L52.19 9.11Q53.12 9.67 54.16 9.87L54.16 9.87L54.16 9.87Q55.19 10.08 56.33 10.08L56.33 10.08L56.33 10.08Q57.14 10.08 57.83 9.98L57.83 9.98L57.83 9.98Q58.51 9.88 59.01 9.68L59.01 9.68L59.01 9.68Q59.51 9.47 59.78 9.13L59.78 9.13L59.78 9.13Q60.06 8.80 60.06 8.31L60.06 8.31L60.06 8.31Q60.06 7.92 59.84 7.63L59.84 7.63L59.84 7.63Q59.62 7.33 59.24 7.11L59.24 7.11L59.24 7.11Q58.86 6.89 58.35 6.72L58.35 6.72L58.35 6.72Q57.84 6.55 57.27 6.40L57.27 6.40L57.27 6.40Q56.70 6.25 56.10 6.11L56.10 6.11L56.10 6.11Q55.49 5.97 54.93 5.81L54.93 5.81L54.93 5.81Q54.36 5.65 53.85 5.44L53.85 5.44L53.85 5.44Q53.34 5.24 52.96 4.96L52.96 4.96L52.96 4.96Q52.58 4.68 52.36 4.32L52.36 4.32L52.36 4.32Q52.14 3.96 52.14 3.48L52.14 3.48L52.14 3.48Q52.14 3.01 52.32 2.64L52.32 2.64L52.32 2.64Q52.49 2.28 52.80 2.01L52.80 2.01L52.80 2.01Q53.12 1.74 53.53 1.56L53.53 1.56L53.53 1.56Q53.95 1.38 54.42 1.27L54.42 1.27L54.42 1.27Q54.90 1.17 55.41 1.12L55.41 1.12L55.41 1.12Q55.92 1.07 56.42 1.07L56.42 1.07L56.42 1.07Q56.97 1.07 57.46 1.12L57.46 1.12L57.46 1.12Q57.95 1.17 58.40 1.25L58.40 1.25L58.40 1.25Q58.86 1.33 59.29 1.43L59.29 1.43L59.29 1.43Q59.73 1.53 60.17 1.65L60.17 1.65Z"></path></g><!----><!----></svg>